HIERARCHY
ROOT Hips
{
	OFFSET 0.000000 0.000000 0.000000
	CHANNELS 6 Xposition Yposition Zposition Xrotation Yrotation Zrotation
	JOINT LeftUpLeg_virtual
	{
		OFFSET 0.000000 0.000000 0.000000
		CHANNELS 3 Xrotation Yrotation Zrotation
		JOINT LeftUpLeg
		{
			OFFSET 11.394100 -6.187798 -0.413800
			CHANNELS 3 Xrotation Yrotation Zrotation
			JOINT LeftLeg
			{
				OFFSET 0.430247 -32.302673 3.732800
				CHANNELS 3 Xrotation Yrotation Zrotation
				JOINT LeftFoot
				{
					OFFSET -0.430247 -48.264931 -6.423300
					CHANNELS 3 Xrotation Yrotation Zrotation
					JOINT LeftToeBase
					{
						OFFSET 4.230900 -16.068199 23.438400
						CHANNELS 3 Xrotation Yrotation Zrotation
						JOINT LeftToe_End
						{
							OFFSET 4.510700 0.695400 19.974600
							CHANNELS 3 Xrotation Yrotation Zrotation
							End Site
							{
								OFFSET 0 0 0
							}
						}
					}
				}
			}
		}
	}
	JOINT RightUpLeg_virtual
	{
		OFFSET 0.000000 0.000000 0.000000
		CHANNELS 3 Xrotation Yrotation Zrotation
		JOINT RightUpLeg
		{
			OFFSET -11.333700 -6.187798 -0.413800
			CHANNELS 3 Xrotation Yrotation Zrotation
			JOINT RightLeg
			{
				OFFSET -0.430392 -32.302628 3.733000
				CHANNELS 3 Xrotation Yrotation Zrotation
				JOINT RightFoot
				{
					OFFSET 0.430392 -48.264973 -6.423500
					CHANNELS 3 Xrotation Yrotation Zrotation
					JOINT RightToeBase
					{
						OFFSET -4.230900 -16.068199 23.438400
						CHANNELS 3 Xrotation Yrotation Zrotation
						JOINT RightToe_End
						{
							OFFSET -4.510700 0.695400 19.974600
							CHANNELS 3 Xrotation Yrotation Zrotation
							End Site
							{
								OFFSET 0 0 0
							}
						}
					}
				}
			}
		}
	}
	JOINT Spine_virtual
	{
		OFFSET 0.000000 0.000000 0.000000
		CHANNELS 3 Xrotation Yrotation Zrotation
		JOINT Spine
		{
			OFFSET -0.002400 12.777504 0.315300
			CHANNELS 3 Xrotation Yrotation Zrotation
			JOINT Spine1
			{
				OFFSET -0.002067 5.816869 0.032633
				CHANNELS 3 Xrotation Yrotation Zrotation
				JOINT Spine1_split
				{
					OFFSET -0.002067 5.816869 0.032633
					CHANNELS 3 Xrotation Yrotation Zrotation
					JOINT Spine2
					{
						OFFSET -0.002067 5.816869 0.032633
						CHANNELS 3 Xrotation Yrotation Zrotation
						JOINT Neck_virtual
						{
							OFFSET 0.000000 0.000000 0.000000
							CHANNELS 3 Xrotation Yrotation Zrotation
							JOINT Neck
							{
								OFFSET -0.003700 21.199493 -0.826900
								CHANNELS 3 Xrotation Yrotation Zrotation
								JOINT Head
								{
									OFFSET 0.000000 20.442200 4.834800
									CHANNELS 3 Xrotation Yrotation Zrotation
									JOINT HeadTop_End
									{
										OFFSET 0.000000 34.668396 4.968400
										CHANNELS 3 Xrotation Yrotation Zrotation
										End Site
										{
											OFFSET 0 0 0
										}
									}
								}
							}
						}
						JOINT LeftShoulder_virtual
						{
							OFFSET 0.000000 0.000000 0.000000
							CHANNELS 3 Xrotation Yrotation Zrotation
							JOINT LeftShoulder
							{
								OFFSET 3.288150 8.794197 -1.372250
								CHANNELS 3 Xrotation Yrotation Zrotation
								JOINT LeftShoulder_split
								{
									OFFSET 3.288150 8.794197 -1.372250
									CHANNELS 3 Xrotation Yrotation Zrotation
									JOINT LeftArm
									{
										OFFSET 11.953299 -2.279007 -0.146200
										CHANNELS 3 Xrotation Yrotation Zrotation
										JOINT LeftForeArm
										{
											OFFSET 18.448900 0.000000 0.000000
											CHANNELS 3 Xrotation Yrotation Zrotation
											JOINT LeftHand
											{
												OFFSET 29.527798 0.000000 0.000000
												CHANNELS 3 Xrotation Yrotation Zrotation
												End Site
												{
													OFFSET 0 0 0
												}
											}
										}
									}
								}
							}
						}
						JOINT RightShoulder_virtual
						{
							OFFSET 0.000000 0.000000 0.000000
							CHANNELS 3 Xrotation Yrotation Zrotation
							JOINT RightShoulder
							{
								OFFSET -3.249400 8.794197 -1.372250
								CHANNELS 3 Xrotation Yrotation Zrotation
								JOINT RightShoulder_split
								{
									OFFSET -3.249400 8.794197 -1.372250
									CHANNELS 3 Xrotation Yrotation Zrotation
									JOINT RightArm
									{
										OFFSET -11.953299 -2.279007 -0.146200
										CHANNELS 3 Xrotation Yrotation Zrotation
										JOINT RightForeArm
										{
											OFFSET -18.448900 0.000000 0.000000
											CHANNELS 3 Xrotation Yrotation Zrotation
											JOINT RightHand
											{
												OFFSET -29.527802 0.000000 0.000000
												CHANNELS 3 Xrotation Yrotation Zrotation
												End Site
												{
													OFFSET 0 0 0
												}
											}
										}
									}
								}
							}
						}
					}
				}
			}
		}
	}
}
MOTION
Frames: 8
Frame Time: 0.03333333
0.416037 97.129410 -2.157036 0.000000 0.000000 0.000000 42.944446 -21.600135 6.600385 -89.461777 6.182993 28.045085 80.675387 -5.326030 -5.397500 11.481453 -14.218085 2.828917 2.631573 -2.600559 1.883307 0.000000 0.000000 0.000000 39.997065 -24.661885 8.515403 -51.946317 5.809618 8.325920 51.407815 -2.844957 -7.938166 -8.525887 -7.025563 -13.738462 -35.445738 10.864443 -9.780568 0.000000 0.000000 0.000000 44.031381 -15.775287 6.513529 18.225388 1.853860 -10.102576 -7.733191 1.777348 1.498002 2.137749 -0.286458 0.743318 0.000000 0.000000 0.000000 -9.303355 -1.116561 3.994146 -0.557650 7.642007 -1.899513 -18.756466 12.118888 -7.974186 0.000000 0.000000 0.000000 -9.462385 -0.681736 3.150294 1.959092 -4.208751 11.007370 -1.438267 -8.364577 -4.983475 -66.556737 -3.384980 -22.717846 172.445297 -78.710745 172.688807 0.000000 0.000000 0.000000 -9.751193 -1.379906 4.564729 5.287472 15.247098 0.280648 -4.141900 1.771649 2.511279 -16.395657 0.352529 46.881394 1.039564 67.410525 -4.666569 0.000000 0.000000 0.000000 
-1.076396 96.940117 9.797962 0.000000 0.000000 0.000000 39.732880 -22.573791 6.249673 -91.025617 7.540201 28.698423 70.396800 -3.151084 -6.460752 10.705247 -13.358938 2.580302 1.522642 -2.490609 1.943966 0.000000 0.000000 0.000000 38.821060 -28.970404 10.568710 -47.974730 6.930850 6.078385 51.964154 -2.365411 -7.354620 -2.005160 -5.144818 -8.453682 -40.932596 10.938325 -9.239997 0.000000 0.000000 0.000000 43.243741 -16.290496 6.541361 18.027419 3.199833 -10.424244 -7.959629 2.207399 1.536109 0.187642 1.107435 -0.011437 0.000000 0.000000 0.000000 -8.681991 -0.756748 4.143203 -0.699593 7.497249 -1.628620 -18.505223 11.428631 -7.553061 0.000000 0.000000 0.000000 -9.170987 -0.144308 3.451716 1.675167 -2.642438 9.892405 0.604842 -7.124990 -4.372851 -63.204781 -0.595082 -22.325754 162.159920 -79.022051 162.186339 0.000000 0.000000 0.000000 -9.907744 -0.946468 4.289659 5.216467 17.020720 -0.000229 -5.140212 1.911631 0.060816 -19.556286 7.325244 45.695714 5.984598 73.703376 -10.012273 0.000000 0.000000 0.000000 
-2.386750 97.346527 24.145994 0.000000 0.000000 0.000000 36.302254 -22.344585 6.700681 -87.863567 8.866995 26.025215 58.700988 0.022983 -6.184837 11.001809 -11.269139 2.497391 0.496408 -2.457568 1.863573 0.000000 0.000000 0.000000 37.135148 -30.028592 11.904848 -37.829105 9.271350 2.624191 48.556163 -1.535114 -7.301981 9.226599 -1.593712 0.903931 -43.054869 10.090752 -7.656392 0.000000 0.000000 0.000000 40.081097 -15.751898 6.230531 19.138979 5.650999 -11.569479 -7.602342 2.955989 1.711570 -0.791318 0.589337 0.927858 0.000000 0.000000 0.000000 -7.622567 0.070642 4.377825 -2.141726 6.305597 -0.901037 -18.444567 9.257477 -7.536385 0.000000 0.000000 0.000000 -8.528803 0.842900 3.738377 1.279171 -0.639806 6.918290 1.916005 -5.523895 -2.244422 -57.493466 4.422490 -22.408343 142.282416 -76.414128 142.328206 0.000000 0.000000 0.000000 -9.324239 0.039678 3.968360 5.207487 19.417241 0.216862 -4.965872 0.818203 -2.236320 -22.335740 14.168307 42.903430 18.496335 77.736582 -23.112834 0.000000 0.000000 0.000000 
-2.984669 97.566322 38.193565 0.000000 0.000000 0.000000 32.605653 -20.424526 7.555005 -80.606286 9.720693 20.447341 48.627320 3.088800 -4.385717 10.662361 -8.372810 3.008928 1.834164 -2.459255 1.427322 0.000000 0.000000 0.000000 35.255582 -27.292104 11.997756 -24.573072 11.256375 -1.478097 43.505949 -1.232873 -7.651727 19.526710 2.977271 9.474576 -40.018109 8.522341 -5.377913 0.000000 0.000000 0.000000 34.705137 -13.977546 5.708073 21.818206 8.406734 -13.153164 -6.744183 3.665275 1.944755 1.010300 -1.603661 3.124934 0.000000 0.000000 0.000000 -6.457166 0.941838 4.636026 -4.809968 4.515396 0.150671 -18.478073 6.312494 -7.874925 0.000000 0.000000 0.000000 -7.824468 1.761764 3.809249 1.027662 1.237607 2.563795 3.541184 -3.932285 0.092954 -49.805552 10.504793 -24.487936 130.918348 -70.031357 131.049651 0.000000 0.000000 0.000000 -8.169825 1.052271 3.599130 4.976926 21.643034 1.689477 -4.440623 -0.859628 -3.988571 -23.071498 17.705942 39.022056 33.514765 78.673869 -38.871771 0.000000 0.000000 0.000000 
-3.111521 96.945236 51.330101 0.000000 0.000000 0.000000 28.098082 -16.663288 8.299990 -71.165995 9.868405 13.149742 41.141470 4.781991 -1.388300 8.282794 -6.007312 3.281149 4.341666 -2.355491 0.693817 0.000000 0.000000 0.000000 32.586727 -21.323364 10.808972 -13.959839 11.840855 -5.352683 42.924624 -2.028500 -7.697185 26.022324 5.855694 13.723841 -29.681222 6.570994 -1.890180 0.000000 0.000000 0.000000 28.204216 -10.415586 5.330940 25.880625 10.522462 -14.546310 -5.567494 3.958248 2.002819 2.576446 -2.919371 4.340885 0.000000 0.000000 0.000000 -5.423862 1.293447 4.745545 -8.409143 2.462580 1.312432 -18.386668 3.058332 -8.364588 0.000000 0.000000 0.000000 -7.208104 2.077957 3.511131 0.946863 2.094873 -2.469071 6.265033 -2.058394 2.055612 -40.162735 15.985950 -29.409961 128.593420 -62.099759 128.755992 0.000000 0.000000 0.000000 -6.794665 1.491089 3.154611 4.351782 22.636780 4.790811 -4.948991 -2.249217 -4.880300 -20.978168 16.318898 35.334491 43.227506 78.287635 -49.365452 0.000000 0.000000 0.000000 
-2.739962 95.157394 62.875202 0.000000 0.000000 0.000000 23.037304 -12.924393 9.034956 -60.477965 9.323580 5.532362 36.750786 4.534163 1.990756 3.497877 -5.063568 3.090815 3.791293 -2.193477 0.151090 0.000000 0.000000 0.000000 28.755752 -13.152105 9.105859 -11.284420 11.308361 -8.436042 50.400946 -4.064823 -7.049491 28.716683 5.736213 13.728078 -15.345605 5.117112 2.881742 0.000000 0.000000 0.000000 21.407450 -6.122436 6.094088 30.691052 11.403086 -15.240819 -4.323070 3.438779 1.749034 3.029671 -4.048226 3.656952 0.000000 0.000000 0.000000 -4.736178 0.791901 4.567522 -12.416810 0.497276 2.347774 -17.476969 0.600516 -8.435497 0.000000 0.000000 0.000000 -6.677746 1.486423 2.820688 0.877375 1.584597 -7.173014 9.613239 -0.063577 3.040613 -30.546973 18.547090 -36.488599 131.038818 -54.744605 131.037534 0.000000 0.000000 0.000000 -5.656155 0.968197 2.672102 3.439169 21.397333 9.017772 -6.043846 -3.278913 -4.643121 -15.895066 10.194856 33.298747 46.991886 78.397628 -53.711795 0.000000 0.000000 0.000000 
-2.049653 92.412857 73.744308 0.000000 0.000000 0.000000 17.933065 -9.011881 9.639188 -50.306392 8.381948 -1.131727 36.014303 2.696723 5.126392 -2.307546 -5.064995 0.455532 -0.323135 -1.832876 0.066988 0.000000 0.000000 0.000000 24.423213 -4.014965 7.737824 -17.121932 10.344270 -10.648406 64.460969 -6.442565 -5.200725 27.745111 4.187293 12.045525 -5.898561 4.058072 6.909772 0.000000 0.000000 0.000000 15.233620 -2.387975 7.312920 35.340358 10.979702 -14.624326 -3.416249 1.950553 1.309480 2.803235 -4.045264 1.778638 0.000000 0.000000 0.000000 -4.290530 -0.631674 4.034876 -16.514498 -1.206216 3.142387 -15.357655 -1.062809 -7.785059 0.000000 0.000000 0.000000 -6.106699 -0.001417 1.989054 0.704926 -0.074574 -10.663448 11.633706 1.981413 1.991578 -22.729329 17.662130 -43.376035 135.925382 -49.123400 135.543028 0.000000 0.000000 0.000000 -4.882371 -0.618911 2.128692 2.336104 17.821907 13.443540 -7.224629 -3.453255 -4.059839 -8.358926 1.460291 34.122754 46.226314 79.505007 -53.375849 0.000000 0.000000 0.000000 
-1.313090 89.712357 84.854538 0.000000 0.000000 0.000000 13.458141 -5.203443 9.953115 -39.547540 8.133295 -6.277177 36.825364 2.051923 7.446384 -9.767458 -4.615787 -2.439083 -5.013661 -1.514310 -0.477236 0.000000 0.000000 0.000000 19.639301 3.865953 7.126888 -29.980613 9.447529 -11.590074 80.398095 -7.939983 -2.717402 24.773492 2.817188 10.164915 -6.446321 2.216575 8.683638 0.000000 0.000000 0.000000 11.188812 -0.056511 8.367534 38.653376 9.428352 -12.299271 -3.102350 -0.357107 0.719908 1.601774 -3.190501 0.332989 0.000000 0.000000 0.000000 -4.034150 -2.809862 3.169296 -19.925514 -2.529828 3.568606 -12.021329 -2.381929 -6.329491 0.000000 0.000000 0.000000 -5.481422 -2.154647 1.243351 0.370067 -2.256380 -12.547045 12.317707 3.567669 0.080721 -18.413425 14.323649 -47.675356 142.087428 -45.853908 141.159369 0.000000 0.000000 0.000000 -4.272776 -2.925027 1.568036 1.446658 12.165766 16.673054 -8.101373 -1.963808 -3.552221 1.648677 -6.471071 37.137419 38.646986 81.431387 -46.036544 0.000000 0.000000 0.000000 
